<?xml version="1.0" encoding="UTF-8"?>
<svg xmlns="http://www.w3.org/2000/svg" xmlns:xlink="http://www.w3.org/1999/xlink" width="72pt" height="20pt" viewBox="0 0 72 20" version="1.1">
<g id="surface1">
<path style=" stroke:none;fill-rule:nonzero;fill:rgb(92.941176%,10.980392%,14.117647%);fill-opacity:1;" d="M 24.714844 14 C 24.285156 14.183594 23.765625 14.351562 23.035156 14.351562 C 22.109375 14.351562 21.375 13.769531 21.375 12.597656 C 21.375 11.015625 22.480469 9.523438 24.25 9.523438 C 24.753906 9.523438 25.101562 9.605469 25.398438 9.730469 L 26.011719 7.824219 C 25.632812 7.671875 25.011719 7.535156 24.292969 7.535156 C 21.070312 7.535156 18.769531 9.882812 18.769531 12.867188 C 18.769531 15.054688 20.242188 16.332031 22.335938 16.332031 C 23.34375 16.332031 24.195312 16.140625 24.742188 15.890625 Z M 29.089844 16.347656 C 32.011719 16.347656 34.132812 14.082031 34.132812 11.007812 C 34.132812 9.082031 32.8125 7.527344 30.539062 7.527344 C 27.527344 7.527344 25.480469 9.945312 25.480469 12.859375 C 25.480469 14.953125 26.917969 16.347656 29.074219 16.347656 Z M 29.386719 14.453125 C 28.535156 14.453125 28.039062 13.796875 28.039062 12.804688 C 28.03125 11.5 28.757812 9.425781 30.195312 9.425781 C 31.195312 9.425781 31.535156 10.242188 31.535156 11.023438 C 31.535156 12.464844 30.761719 14.453125 29.414062 14.453125 Z M 36.746094 16.160156 L 37.339844 13.023438 C 37.652344 11.367188 38.398438 9.953125 39.988281 9.953125 C 40.132812 9.953125 40.277344 9.964844 40.375 9.972656 L 40.871094 7.546875 C 40.714844 7.535156 40.554688 7.527344 40.402344 7.527344 C 39.242188 7.527344 38.300781 8.328125 37.699219 9.453125 C 37.707031 8.867188 37.761719 8.292969 37.796875 7.726562 L 35.640625 7.726562 C 35.550781 8.453125 35.441406 9.875 35.210938 11.140625 L 34.257812 16.160156 Z M 42.84375 16.160156 L 43.4375 13.023438 C 43.753906 11.367188 44.5 9.953125 46.078125 9.953125 C 46.222656 9.953125 46.367188 9.964844 46.476562 9.972656 L 46.960938 7.546875 C 46.816406 7.535156 46.65625 7.527344 46.492188 7.527344 C 45.335938 7.527344 44.390625 8.328125 43.789062 9.453125 C 43.796875 8.867188 43.84375 8.292969 43.898438 7.726562 L 41.730469 7.726562 C 41.640625 8.453125 41.535156 9.875 41.300781 11.140625 L 40.339844 16.160156 Z M 48.605469 16.160156 L 50.210938 7.726562 L 47.722656 7.726562 L 46.117188 16.160156 Z M 49.296875 6.617188 C 50.140625 6.617188 50.859375 6.070312 50.859375 5.125 C 50.859375 4.335938 50.300781 3.820312 49.53125 3.820312 C 48.710938 3.820312 48.003906 4.433594 48.003906 5.324219 C 47.992188 6.105469 48.542969 6.617188 49.269531 6.617188 Z M 51.867188 19.566406 L 52.558594 16 C 52.890625 16.179688 53.484375 16.347656 54.164062 16.347656 C 57.113281 16.347656 59.070312 13.660156 59.070312 10.726562 C 59.070312 9 58.179688 7.527344 56.339844 7.527344 C 55.316406 7.527344 54.308594 8.03125 53.625 8.949219 L 53.742188 7.652344 L 51.507812 7.652344 C 51.40625 8.515625 51.199219 9.972656 51.011719 10.980469 L 49.375 19.566406 Z M 53.25 12.238281 C 53.554688 10.585938 54.417969 9.550781 55.359375 9.550781 C 56.167969 9.550781 56.457031 10.261719 56.457031 10.925781 C 56.457031 12.589844 55.40625 14.46875 54.074219 14.46875 C 53.582031 14.46875 53.214844 14.316406 52.933594 14.074219 Z M 61.515625 16.160156 L 63.132812 7.726562 L 60.632812 7.726562 L 59.027344 16.160156 Z M 62.207031 6.617188 C 63.050781 6.617188 63.769531 6.070312 63.777344 5.125 C 63.777344 4.335938 63.222656 3.820312 62.449219 3.820312 C 61.628906 3.820312 60.929688 4.433594 60.921875 5.324219 C 60.921875 6.105469 61.460938 6.617188 62.195312 6.617188 Z M 66.851562 16.347656 C 69.761719 16.347656 71.890625 14.082031 71.890625 11.007812 C 71.890625 9.082031 70.570312 7.527344 68.296875 7.527344 C 65.289062 7.527344 63.238281 9.945312 63.238281 12.859375 C 63.238281 14.953125 64.675781 16.347656 66.832031 16.347656 Z M 67.148438 14.453125 C 66.292969 14.453125 65.800781 13.796875 65.800781 12.804688 C 65.800781 11.5 66.519531 9.425781 67.957031 9.425781 C 68.945312 9.425781 69.285156 10.242188 69.285156 11.023438 C 69.285156 12.464844 68.511719 14.453125 67.15625 14.453125 Z M 5.914062 14.351562 C 4.179688 12.796875 4.648438 9.46875 6.957031 6.914062 C 9.265625 4.363281 12.535156 3.550781 14.277344 5.097656 C 14.734375 5.511719 15.039062 6.0625 15.203125 6.683594 C 14.421875 7.042969 13.667969 7.761719 13.128906 8.722656 C 13.128906 7.707031 12.75 6.84375 12.011719 6.449219 C 10.746094 5.78125 8.914062 6.746094 7.917969 8.613281 C 6.917969 10.484375 7.136719 12.535156 8.402344 13.210938 C 9.652344 13.875 11.457031 12.933594 12.460938 11.113281 C 12.460938 11.789062 12.625 12.390625 12.949219 12.839844 C 10.65625 15.152344 7.574219 15.835938 5.914062 14.351562 Z M 4.46875 15.523438 C 6.632812 17.597656 10.890625 16.707031 13.980469 13.515625 C 17.070312 10.324219 17.824219 6.050781 15.660156 3.976562 C 13.496094 1.898438 9.226562 2.796875 6.136719 5.980469 C 3.054688 9.171875 2.300781 13.445312 4.46875 15.523438 Z M 1.105469 19.039062 C -1.265625 16.761719 0.746094 10.871094 5.589844 5.882812 C 10.433594 0.890625 16.273438 -1.3125 18.644531 0.960938 C 21.007812 3.238281 19.003906 9.128906 14.160156 14.128906 C 9.316406 19.117188 3.46875 21.3125 1.105469 19.039062 Z M 1.105469 19.039062 "/>
</g>
</svg>
